<?xml version="1.0" standalone="no"?>
<!DOCTYPE svg PUBLIC "-//W3C//DTD SVG 20010904//EN"
 "http://www.w3.org/TR/2001/REC-SVG-20010904/DTD/svg10.dtd">
<svg version="1.0" xmlns="http://www.w3.org/2000/svg"
 width="260.000000pt" height="260.000000pt" viewBox="0 0 260.000000 260.000000"
 preserveAspectRatio="xMidYMid meet">
<metadata>
Created by potrace 1.11, written by Peter Selinger 2001-2013
</metadata>
<g transform="translate(0.000000,260.000000) scale(0.100000,-0.100000)"
fill="#000000" stroke="none">
<path d="M1470 2545 l0 -55 -55 0 -55 0 0 -55 0 -55 -400 0 -400 0 0 -60 0
-60 -55 0 -55 0 0 -55 0 -55 -55 0 -55 0 0 -115 0 -115 55 0 55 0 0 -55 0 -55
170 0 170 0 0 -60 0 -60 -55 0 -55 0 0 -110 0 -110 -60 0 -60 0 0 -280 0 -280
-55 0 -55 0 0 -115 0 -115 -225 0 -225 0 0 -60 0 -60 115 0 115 0 0 -55 0 -55
55 0 55 0 0 -110 0 -110 55 0 55 0 0 -55 0 -55 55 0 55 0 0 110 0 110 60 0 60
0 0 -170 0 -170 225 0 225 0 0 115 0 115 -60 0 -60 0 0 110 0 110 60 0 60 0 0
-55 0 -55 170 0 170 0 0 55 0 55 55 0 55 0 0 55 0 55 55 0 55 0 0 60 0 60 115
0 115 0 0 225 0 225 55 0 55 0 0 -55 0 -55 60 0 60 0 0 -115 0 -115 55 0 55 0
0 -55 0 -55 60 0 60 0 0 55 0 55 55 0 55 0 0 60 0 60 55 0 55 0 0 225 0 225
-55 0 -55 0 0 110 0 110 -55 0 -55 0 0 115 0 115 55 0 55 0 0 170 0 170 -55 0
-55 0 0 115 0 115 -60 0 -60 0 0 55 0 55 -115 0 -115 0 0 55 0 55 -280 0 -280
0 0 -55z m560 -110 l0 -55 -55 0 -55 0 0 -115 0 -115 -115 0 -115 0 0 55 0 55
60 0 60 0 0 115 0 115 110 0 110 0 0 -55z m230 -285 l0 -110 -55 0 -55 0 0
-60 0 -60 -60 0 -60 0 0 60 0 60 60 0 60 0 0 110 0 110 55 0 55 0 0 -110z
m-1130 -735 l0 -55 60 0 60 0 0 -55 0 -55 110 0 110 0 0 55 0 55 55 0 55 0 0
55 0 55 55 0 55 0 0 -55 0 -55 60 0 60 0 0 -55 0 -55 55 0 55 0 0 -60 0 -60
-115 0 -115 0 0 -55 0 -55 60 0 60 0 0 -115 0 -115 -60 0 -60 0 0 -55 0 -55
-55 0 -55 0 0 -60 0 -60 -55 0 -55 0 0 -55 0 -55 -170 0 -170 0 0 55 0 55 -60
0 -60 0 0 -55 0 -55 -55 0 -55 0 0 55 0 55 -55 0 -55 0 0 60 0 60 -55 0 -55 0
0 170 0 170 55 0 55 0 0 55 0 55 55 0 55 0 0 115 0 115 55 0 55 0 0 55 0 55
60 0 60 0 0 -55z m-570 -905 l0 -170 -55 0 -55 0 0 170 0 170 55 0 55 0 0
-170z"/>
</g>
</svg>
